<svg xmlns="http://www.w3.org/2000/svg"  viewBox="0 0 48 48" width="48px" height="48px" baseProfile="basic"><path d="M39,29H9c-1.657,0-3-1.343-3-3v-3h36v3C42,27.657,40.657,29,39,29z"/><path fill="#fff" d="M39,27H9c-1.105,0-2-0.895-2-2v-3h34v3C41,26.105,40.105,27,39,27z"/><path d="M39,28H9c-1.654,0-3-1.346-3-3v-3c0-0.553,0.448-1,1-1h34c0.552,0,1,0.447,1,1v3C42,26.654,40.654,28,39,28z M8,23v2	c0,0.552,0.449,1,1,1h30c0.551,0,1-0.448,1-1v-2H8z"/><path d="M39,17H9c-1.657,0-3-1.343-3-3v-3h36v3C42,15.657,40.657,17,39,17z"/><path fill="#fff" d="M39,15H9c-1.105,0-2-0.895-2-2v-3h34v3C41,14.105,40.105,15,39,15z"/><path d="M39,16H9c-1.654,0-3-1.346-3-3v-3c0-0.553,0.448-1,1-1h34c0.552,0,1,0.447,1,1v3C42,14.654,40.654,16,39,16z M8,11v2	c0,0.552,0.449,1,1,1h30c0.551,0,1-0.448,1-1v-2H8z"/><path d="M39,41H9c-1.657,0-3-1.343-3-3v-3h36v3C42,39.657,40.657,41,39,41z"/><path fill="#fff" d="M39,39H9c-1.105,0-2-0.895-2-2v-3h34v3C41,38.105,40.105,39,39,39z"/><path d="M39,40H9c-1.654,0-3-1.346-3-3v-3c0-0.553,0.448-1,1-1h34c0.552,0,1,0.447,1,1v3C42,38.654,40.654,40,39,40z M8,35v2	c0,0.552,0.449,1,1,1h30c0.551,0,1-0.448,1-1v-2H8z"/></svg>